Coordinates
version=1
nRows=29
nColumns=24
inDegrees=yes

Units are S.I. units (second, meters, Newtons, ...)
Angles are in degrees.

endheader
time	pelvis_tilt	pelvis_list	pelvis_rotation	pelvis_tx	pelvis_ty	pelvis_tz	hip_flexion_r	hip_adduction_r	hip_rotation_r	knee_angle_r	ankle_angle_r	subtalar_angle_r	mtp_angle_r	hip_flexion_l	hip_adduction_l	hip_rotation_l	knee_angle_l	ankle_angle_l	subtalar_angle_l	mtp_angle_l	lumbar_extension	lumbar_bending	lumbar_rotation
      1.42083333	     -4.07239976	      2.85689785	     -4.89426363	      0.51350563	      1.07241716	      0.27457223	     21.03512365	     -5.59457024	     -4.93643857	    -63.83195403	      2.56695202	     -6.64904402	      7.48323268	      9.62268109	      4.98862741	      2.18584677	     -9.23882976	      3.36932584	     -3.90271732	      3.38278481	     -9.58342376	     -5.60292246	     -1.60345026
      1.42500000	     -4.05745769	      2.77399042	     -4.78109191	      0.51845510	      1.07306934	      0.27419994	     21.42199288	     -5.47080632	     -5.03692373	    -63.14662414	      2.83618187	     -6.49706448	      7.59548400	      9.07895484	      4.95557535	      2.43685165	     -8.75749191	      3.29282616	     -4.06635053	      3.36702637	     -9.59701261	     -5.47012524	     -1.77041589
      1.42916667	     -4.05767035	      2.67907921	     -4.66600159	      0.52341275	      1.07365967	      0.27382932	     21.81081490	     -5.33515084	     -5.14359077	    -62.42521006	      3.07726082	     -6.37079392	      7.68487067	      8.56297248	      4.90382729	      2.65518688	     -8.30461120	      3.26657785	     -4.16991586	      3.35367565	     -9.58799324	     -5.31554064	     -1.91566277
      1.43333333	     -4.06080237	      2.59191408	     -4.54881327	      0.52833751	      1.07417778	      0.27346317	     22.19873569	     -5.20914746	     -5.24784046	    -61.68179935	      3.31750929	     -6.26863513	      7.76566544	      8.05732600	      4.85782835	      2.87962218	     -7.85862992	      3.23296451	     -4.28899372	      3.33923685	     -9.57914123	     -5.16933828	     -2.07309586
      1.43750000	     -4.06318385	      2.51351785	     -4.43497893	      0.53325105	      1.07464217	      0.27310831	     22.58075910	     -5.09270133	     -5.34480097	    -60.91578730	      3.54391309	     -6.20543499	      7.83922796	      7.55456535	      4.81902075	      3.10364115	     -7.41838294	      3.19775885	     -4.41833964	      3.32267416	     -9.57421393	     -5.03930986	     -2.22624032
      1.44166667	     -4.07838988	      2.42919493	     -4.31804859	      0.53815184	      1.07504828	      0.27276458	     22.96424082	     -4.96857712	     -5.44204412	    -60.11767633	      3.74975441	     -6.18172563	      7.90543829	      7.07104036	      4.76951102	      3.33395847	     -6.98752436	      3.16941499	     -4.54921962	      3.30486490	     -9.55389520	     -4.90013961	     -2.37913140
      1.44583333	     -4.09512847	      2.36092665	     -4.20286435	      0.54303123	      1.07539096	      0.27243260	     23.34663547	     -4.86139189	     -5.52709181	    -59.30485307	      3.96822338	     -6.18920890	      7.97381773	      6.59485643	      4.73496580	      3.56611831	     -6.56161774	      3.11174069	     -4.70542939	      3.28149610	     -9.54073832	     -4.78641043	     -2.53381224
      1.45000000	     -4.14577077	      2.29319775	     -4.10105132	      0.54791576	      1.07559211	      0.27213176	     23.76432531	     -4.74968376	     -5.60251942	    -58.48069013	      4.16881065	     -6.21157670	      7.98720018	      6.18277067	      4.69018462	      3.67393234	     -6.19580297	      3.17292128	     -4.64784510	      3.27890565	     -9.47432842	     -4.67131928	     -2.56577700
      1.45416667	     -4.12512233	      2.21268287	     -3.97745037	      0.55274993	      1.07591715	      0.27179861	     24.07935497	     -4.63685581	     -5.69395464	    -57.60194412	      4.30818568	     -6.27920169	      8.02452527	      5.67009213	      4.64366992	      3.97253808	     -5.77672472	      3.14103959	     -4.90109847	      3.25741067	     -9.51052480	     -4.53689920	     -2.81370354
      1.45833333	     -4.17489630	      2.13600237	     -3.86450863	      0.55760192	      1.07605810	      0.27150559	     24.46647503	     -4.51694568	     -5.76901279	    -56.71134887	      4.49377560	     -6.34082885	      8.03845431	      5.27029340	      4.58706902	      4.11770890	     -5.43564381	      3.16535698	     -4.92853988	      3.24835387	     -9.44848881	     -4.41811051	     -2.86644154
      1.46250000	     -4.20601985	      2.08260049	     -3.75559298	      0.56243598	      1.07616158	      0.27122206	     24.83495791	     -4.42490582	     -5.83229758	    -55.81562374	      4.60496667	     -6.47610982	      8.05208986	      4.82829260	      4.55736303	      4.36496587	     -5.04308285	      3.17951773	     -5.11772163	      3.22979574	     -9.40788276	     -4.31106693	     -3.03961321
      1.46666667	     -4.22879690	      2.02752760	     -3.65147138	      0.56724428	      1.07623485	      0.27095775	     25.18507268	     -4.32780662	     -5.88266923	    -54.89786878	      4.75259999	     -6.60206305	      8.05856611	      4.39199434	      4.52298693	      4.57278054	     -4.67806155	      3.19136824	     -5.24463014	      3.21133055	     -9.39458555	     -4.21730127	     -3.14941066
      1.47083333	     -4.29201714	      1.98726787	     -3.54748681	      0.57204701	      1.07617326	      0.27072420	     25.57568074	     -4.24125546	     -5.92320106	    -53.97017148	      4.87787886	     -6.75994155	      8.05595297	      4.01300886	      4.49816769	      4.76753958	     -4.33944330	      3.22166001	     -5.36294085	      3.19299527	     -9.32489554	     -4.13886744	     -3.26182548
      1.47500000	     -4.31075606	      1.94019914	     -3.44872679	      0.57683048	      1.07615852	      0.27050565	     25.90461799	     -4.14730708	     -5.95465384	    -53.01514937	      4.99559276	     -6.93202251	      8.04506999	      3.58668564	      4.46636451	      4.95295145	     -4.00166185	      3.26039199	     -5.46272543	      3.17547581	     -9.31808548	     -4.05867763	     -3.36299902
      1.47916667	     -4.35979139	      1.90211055	     -3.34666583	      0.58159961	      1.07603015	      0.27029205	     26.26090828	     -4.06297628	     -5.98184724	    -52.05002541	      5.13972758	     -7.08552540	      8.03525926	      3.21729474	      4.43996537	      5.08990103	     -3.71182078	      3.32266385	     -5.48725566	      3.16740460	     -9.27551953	     -3.98769639	     -3.41977839
      1.48333333	     -4.40143994	      1.88674378	     -3.25653634	      0.58635554	      1.07586420	      0.27012379	     26.61039597	     -3.99331187	     -5.97841213	    -51.08005098	      5.20917973	     -7.33715807	      8.00067180	      2.81306347	      4.43590646	      5.32959534	     -3.36157257	      3.33568675	     -5.69235996	      3.14183209	     -9.24618292	     -3.94493613	     -3.57214942
      1.48750000	     -4.42652582	      1.85091079	     -3.16120838	      0.59112490	      1.07569302	      0.26994349	     26.92001036	     -3.91050572	     -5.99507872	    -50.07826808	      5.31340496	     -7.49737430	      7.98384196	      2.42308699	      4.40871864	      5.45297839	     -3.08488590	      3.43244325	     -5.70228841	      3.13519948	     -9.22436272	     -3.87682906	     -3.60936350
      1.49166667	     -4.45262163	      1.83648552	     -3.07621614	      0.59586763	      1.07546121	      0.26980036	     27.23412919	     -3.84101790	     -5.98310997	    -49.07543434	      5.33470089	     -7.76833555	      7.94771501	      2.01828525	      4.40190303	      5.63646383	     -2.76865404	      3.50432956	     -5.82103266	      3.12068274	     -9.20987235	     -3.84315005	     -3.71681461
      1.49583333	     -4.50122620	      1.83070906	     -2.98956011	      0.60061574	      1.07514633	      0.26967257	     27.56353191	     -3.77882182	     -5.96422752	    -48.06232609	      5.39836693	     -7.98567743	      7.91134456	      1.65095153	      4.40082150	      5.80285826	     -2.48145751	      3.57539174	     -5.91716272	      3.10697430	     -9.16764659	     -3.81652772	     -3.79480424
      1.50000000	     -4.55201822	      1.83526901	     -2.90612398	      0.60534718	      1.07476817	      0.26956310	     27.89250289	     -3.72518342	     -5.93416829	    -47.04860260	      5.50433158	     -8.17023136	      7.88735097	      1.29719178	      4.40851819	      5.93627319	     -2.21534032	      3.66001910	     -5.94497652	      3.10015900	     -9.14597476	     -3.80002919	     -3.84305837
      1.50416667	     -4.57071833	      1.85076327	     -2.82927537	      0.61008116	      1.07439885	      0.26947208	     28.18104978	     -3.68372739	     -5.89830484	    -46.02294779	      5.50881044	     -8.41770976	      7.84684522	      0.89693881	      4.42783462	      6.09831185	     -1.92506589	      3.74653370	     -6.05480598	      3.08833890	     -9.13161016	     -3.80451402	     -3.92919066
      1.50833333	     -4.59018431	      1.85912623	     -2.74979722	      0.61480616	      1.07400707	      0.26938748	     28.45666923	     -3.63316418	     -5.85948469	    -44.98124287	      5.56434404	     -8.61286034	      7.81243191	      0.50474279	      4.43711082	      6.25261112	     -1.64993169	      3.82771457	     -6.12408199	      3.07841238	     -9.14820509	     -3.79750725	     -3.98816251
      1.51250000	     -4.61093695	      1.91028533	     -2.68215083	      0.61950730	      1.07352955	      0.26934672	     28.74572661	     -3.61982154	     -5.78754626	    -43.95771130	      5.56876797	     -8.82716555	      7.75860555	      0.10922813	      4.49006710	      6.44034889	     -1.36147086	      3.89436792	     -6.27031296	      3.06100861	     -9.14320709	     -3.84002875	     -4.07235177
      1.51666667	     -4.64996923	      1.93270212	     -2.60731877	      0.62425366	      1.07300392	      0.26928617	     29.03089984	     -3.58347347	     -5.74321875	    -42.90993489	      5.64305824	     -8.95108210	      7.73132281	     -0.25601736	      4.50957578	      6.56436914	     -1.10242559	      3.99982483	     -6.29605343	      3.05410399	     -9.13131337	     -3.84802631	     -4.10693170
      1.52083333	     -4.67343700	      1.99835447	     -2.54519682	      0.62896148	      1.07244595	      0.26927668	     29.31062811	     -3.58190926	     -5.66063778	    -41.87663354	      5.63043038	     -9.13851522	      7.67399913	     -0.65111584	      4.57338794	      6.75364372	     -0.80994986	      4.06395190	     -6.44887895	      3.03363880	     -9.13699062	     -3.91648933	     -4.18845779
      1.52500000	     -4.71328885	      2.06333355	     -2.48533085	      0.63371125	      1.07180602	      0.26926582	     29.60252314	     -3.58690961	     -5.59977070	    -40.85264406	      5.71916606	     -9.16181245	      7.66396051	     -1.01430503	      4.63548656	      6.84507492	     -0.55318711	      4.20607608	     -6.41572231	      3.03334899	     -9.10741281	     -3.98857033	     -4.21459316
      1.52916667	     -4.69539895	      2.10611088	     -2.41357475	      0.63842062	      1.07127523	      0.26924697	     29.80351619	     -3.56779247	     -5.53315266	    -39.77538266	      5.68068343	     -9.32640995	      7.62185127	     -1.45111755	      4.67297764	      7.02878329	     -0.27195038	      4.26320440	     -6.56500623	      3.01475027	     -9.17619327	     -4.01401973	     -4.28690653
      1.53333333	     -4.73924695	      2.17035894	     -2.34726114	      0.64316859	      1.07056276	      0.26925023	     30.07716378	     -3.57128523	     -5.47090999	    -38.72555740	      5.74345959	     -9.32336241	      7.60821968	     -1.80748378	      4.72989634	      7.14222843	     -0.02429088	      4.37599481	     -6.58242428	      3.00877384	     -9.15144851	     -4.06335950	     -4.31461057
      1.53750000	     -4.75139923	      2.24521572	     -2.28569603	      0.64791385	      1.06987921	      0.26926582	     30.31135128	     -3.58546523	     -5.40176902	    -37.67257490	      5.76838842	     -9.32422690	      7.59739191	     -2.20717909	      4.79802927	      7.26907785	      0.24305285	      4.48380443	     -6.61600138	      3.00216461	     -9.16856311	     -4.13240109	     -4.35810252
